<svg width="100%" height="100%" id="svg" viewBox="0 0 1440 700" xmlns="http://www.w3.org/2000/svg" class="transition duration-300 ease-in-out delay-150"><defs><linearGradient id="gradient" x1="0%" y1="50%" x2="100%" y2="50%"><stop offset="5%" stop-color="#8ed1fc"></stop><stop offset="95%" stop-color="#32ded4"></stop></linearGradient></defs><path d="M 0,700 C 0,700 0,233 0,233 C 112.42105263157893,272.88516746411483 224.84210526315786,312.77033492822966 328,309 C 431.15789473684214,305.22966507177034 525.0526315789474,257.8038277511962 610,238 C 694.9473684210526,218.19617224880383 770.9473684210526,226.01435406698562 871,223 C 971.0526315789474,219.98564593301438 1095.157894736842,206.13875598086128 1194,206 C 1292.842105263158,205.86124401913872 1366.421052631579,219.43062200956936 1440,233 C 1440,233 1440,700 1440,700 Z" stroke="none" stroke-width="0" fill="url(#gradient)" fill-opacity="0.53" class="transition-all duration-300 ease-in-out delay-150 path-0"></path><defs><linearGradient id="gradient" x1="0%" y1="50%" x2="100%" y2="50%"><stop offset="5%" stop-color="#8ed1fc"></stop><stop offset="95%" stop-color="#32ded4"></stop></linearGradient></defs><path d="M 0,700 C 0,700 0,466 0,466 C 105.8468899521531,443.0143540669857 211.6937799043062,420.0287081339713 317,435 C 422.3062200956938,449.9712918660287 527.0717703349283,502.89952153110045 601,491 C 674.9282296650717,479.10047846889955 718.0191387559809,402.37320574162686 810,403 C 901.9808612440191,403.62679425837314 1042.8516746411483,481.6076555023924 1156,505 C 1269.1483253588517,528.3923444976076 1354.5741626794259,497.1961722488038 1440,466 C 1440,466 1440,700 1440,700 Z" stroke="none" stroke-width="0" fill="url(#gradient)" fill-opacity="1" class="transition-all duration-300 ease-in-out delay-150 path-1"></path></svg>